<svg xmlns="http://www.w3.org/2000/svg" xmlns:xlink="http://www.w3.org/1999/xlink" width="300" height="144" viewBox="0 0 300 144">
  <defs>
    <clipPath id="clip-Calendly">
      <rect width="300" height="144"/>
    </clipPath>
  </defs>
  <g id="Calendly" clip-path="url(#clip-Calendly)">
    <rect width="300" height="144" fill="#fff"/>
    <g id="Calendly-2" data-name="Calendly" transform="translate(7.087 13.703)">
      <g id="Logo" transform="translate(16 27.665)">
        <g id="Calendly-3" data-name="Calendly" transform="translate(67.973 8.48)">
          <path id="C" d="M447.478,90.2a14.215,14.215,0,1,1,4.11-24.312,13.977,13.977,0,0,1,2.164,2.235l3.959-2.887A19.134,19.134,0,1,0,454.223,92l-2.63-4.158a14.341,14.341,0,0,1-4.108,2.368" transform="translate(-423.377 -56.933)" fill="#006bff"/>
          <path id="a" d="M638.9,137.529a9.318,9.318,0,1,0-9.345,9.4,9.182,9.182,0,0,0,9.345-9.4m4.567-13.121v26.245H638.9v-4.515a11.332,11.332,0,0,1-9.921,5.2,13.819,13.819,0,0,1,0-27.617,11.352,11.352,0,0,1,9.921,5.2v-4.51Z" transform="translate(-584.824 -112.332)" fill="#006bff"/>
          <rect id="l" width="4.566" height="38.323" transform="translate(62.218)" fill="#006bff"/>
          <path id="e" d="M866.571,128.038a8.31,8.31,0,0,1,8.452,7.612H857.5a8.712,8.712,0,0,1,9.081-7.612m7.892,15.31A8.6,8.6,0,0,1,867,147.041c-4.882,0-8.612-2.676-9.5-7.4h22a13.3,13.3,0,0,0,.16-2.047c0-7.349-5.137-13.86-13.073-13.86a13.334,13.334,0,0,0-13.749,13.808c0,7.867,5.619,13.808,14.068,13.808a13.236,13.236,0,0,0,11.549-5.941Z" transform="translate(-783.873 -112.342)" fill="#006bff"/>
          <path id="n" d="M1056.553,134.569v16.115h-4.568V134.83c0-4.3-2.466-6.719-6.509-6.719-4.2,0-7.612,2.467-7.612,8.662v13.911H1033.3V124.437h4.568v3.777a9.334,9.334,0,0,1,8.509-4.462c6.142,0,10.184,4.095,10.184,10.815" transform="translate(-935.377 -112.361)" fill="#006bff"/>
          <path id="d" d="M1213.685,77.978a9.318,9.318,0,1,0-9.345,9.4,9.182,9.182,0,0,0,9.345-9.4m4.566-25.2V91.1h-4.566V86.587a11.332,11.332,0,0,1-9.922,5.2,13.819,13.819,0,0,1,0-27.617,11.356,11.356,0,0,1,9.922,5.2V52.78Z" transform="translate(-1067.318 -52.78)" fill="#006bff"/>
          <rect id="l-2" data-name="l" width="4.566" height="38.323" transform="translate(154.613)" fill="#006bff"/>
          <path id="y" d="M1452.39,128v14.9c0,4.817-2.8,7.867-7.079,7.867s-7.375-3.051-7.375-7.867V128h-4.622v14.45c0,7.571,4.719,12.488,12,12.488,6.294,0,7.276-3.981,7.276-4.079v5.359c0,5.309-2.31,8.31-7.128,8.31a7.1,7.1,0,0,1-7.066-6.133l-4.13,1.444a11.483,11.483,0,0,0,11.2,8.868c7.473,0,11.56-4.918,11.56-12.488V128Z" transform="translate(-1271.172 -115.923)" fill="#006bff"/>
        </g>
        <g id="Icon" transform="translate(0 0)">
          <path id="Path_1113" data-name="Path 1113" d="M77.512,79.7A11.054,11.054,0,0,1,69.586,83.2H67.216a10.224,10.224,0,0,1-7.363-2.94,10.051,10.051,0,0,1-2.836-7.135v-3.25a10.051,10.051,0,0,1,2.836-7.135A10.224,10.224,0,0,1,67.216,59.8h2.371a11.045,11.045,0,0,1,7.92,3.493A9.64,9.64,0,0,0,85.093,66.3,12.049,12.049,0,0,0,87,66.149l-.012-.038a14.377,14.377,0,0,0-.881-1.813l-2.8-4.853a14.394,14.394,0,0,0-12.465-7.2H65.235a14.4,14.4,0,0,0-12.467,7.2l-2.8,4.852a14.4,14.4,0,0,0,0,14.395l2.8,4.853a14.394,14.394,0,0,0,12.465,7.2h5.605a14.4,14.4,0,0,0,12.467-7.2l2.8-4.845a14.373,14.373,0,0,0,.881-1.813L87,76.853a11.878,11.878,0,0,0-1.908-.16A9.614,9.614,0,0,0,77.508,79.7" transform="translate(-40.336 -43.856)" fill="#006bff"/>
          <path id="Path_1114" data-name="Path 1114" d="M131.91,117.613h-2.377a6.928,6.928,0,0,0-7.252,7.127v3.252a6.929,6.929,0,0,0,7.252,7.127h2.377c6.378,0,5.876-6.5,15.507-6.5a14.714,14.714,0,0,1,2.72.251,14.377,14.377,0,0,0,0-5,14.856,14.856,0,0,1-2.72.251c-9.634,0-9.129-6.5-15.507-6.5" transform="translate(-102.654 -98.724)" fill="#006bff"/>
          <path id="Path_1115" data-name="Path 1115" d="M53.055,32.5a13.426,13.426,0,0,0-5.531-2.378v.048a14.4,14.4,0,0,1-.8,2.8,10.53,10.53,0,0,1,4.572,1.883.165.165,0,0,1-.014.044,24.657,24.657,0,1,1,0-14.552.135.135,0,0,0,.014.044,10.508,10.508,0,0,1-4.572,1.881,14.505,14.505,0,0,1,.8,2.8.374.374,0,0,0,0,.045,13.423,13.423,0,0,0,5.531-2.377,2.649,2.649,0,0,0,1.032-3.265,27.636,27.636,0,1,0,0,16.285,2.649,2.649,0,0,0-1.032-3.265" transform="translate(-0.041 0.022)" fill="#006bff"/>
          <path id="Path_1116" data-name="Path 1116" d="M133.921,105.634a11.88,11.88,0,0,1-1.908.16,9.606,9.606,0,0,1-7.585-3.008,11.052,11.052,0,0,0-7.922-3.495h-2.377a10.223,10.223,0,0,0-7.363,2.94,10.05,10.05,0,0,0-2.836,7.135v3.251a10.051,10.051,0,0,0,2.836,7.135,10.221,10.221,0,0,0,7.363,2.939h2.377a11.051,11.051,0,0,0,7.922-3.493,9.634,9.634,0,0,1,7.585-3.008,12.051,12.051,0,0,1,1.907.151,14.286,14.286,0,0,0,.805-2.8.433.433,0,0,0,0-.048,14.857,14.857,0,0,0-2.72-.249c-9.634,0-9.129,6.5-15.507,6.5h-2.377a6.929,6.929,0,0,1-7.252-7.129v-3.258a6.928,6.928,0,0,1,7.252-7.127H116.5c6.378,0,5.876,6.5,15.507,6.5a14.709,14.709,0,0,0,2.72-.249v-.045a14.5,14.5,0,0,0-.8-2.8" transform="translate(-87.25 -83.343)" fill="#0ae8f0"/>
          <path id="Path_1117" data-name="Path 1117" d="M133.921,105.634a11.88,11.88,0,0,1-1.908.16,9.606,9.606,0,0,1-7.585-3.008,11.052,11.052,0,0,0-7.922-3.495h-2.377a10.223,10.223,0,0,0-7.363,2.94,10.05,10.05,0,0,0-2.836,7.135v3.251a10.051,10.051,0,0,0,2.836,7.135,10.221,10.221,0,0,0,7.363,2.939h2.377a11.051,11.051,0,0,0,7.922-3.493,9.634,9.634,0,0,1,7.585-3.008,12.051,12.051,0,0,1,1.907.151,14.286,14.286,0,0,0,.805-2.8.433.433,0,0,0,0-.048,14.857,14.857,0,0,0-2.72-.249c-9.634,0-9.129,6.5-15.507,6.5h-2.377a6.929,6.929,0,0,1-7.252-7.129v-3.258a6.928,6.928,0,0,1,7.252-7.127H116.5c6.378,0,5.876,6.5,15.507,6.5a14.709,14.709,0,0,0,2.72-.249v-.045a14.5,14.5,0,0,0-.8-2.8" transform="translate(-87.25 -83.343)" fill="#0ae8f0"/>
        </g>
      </g>
    </g>
  </g>
</svg>
