<svg xmlns="http://www.w3.org/2000/svg" xmlns:xlink="http://www.w3.org/1999/xlink" width="300" height="144" viewBox="0 0 300 144">
  <defs>
    <clipPath id="clip-Coupa">
      <rect width="300" height="144"/>
    </clipPath>
  </defs>
  <g id="Coupa" clip-path="url(#clip-Coupa)">
    <rect width="300" height="144" fill="#324687"/>
    <g id="Coupa-2" data-name="Coupa" transform="translate(7.774 9.077)">
      <g id="Group_2" data-name="Group 2" transform="translate(16 27.281)">
        <path id="Path_1" data-name="Path 1" d="M72.928,46.037a17.853,17.853,0,0,1-9.211,2.377c-10.447,0-16.582-7.259-16.582-19.566,0-8.752,3.334-14.519,7.793-17.559A17.853,17.853,0,0,1,64.317,8.47a16.342,16.342,0,0,1,7.363,1.7,18.074,18.074,0,0,1,3.685,2.672l-4.827,6.522a9.581,9.581,0,0,0-5.988-2.966c-4.458,0-6.448,3.851-6.448,12.75,0,4.959.663,7.922,1.842,9.562a5.73,5.73,0,0,0,4.508,2.063,10.208,10.208,0,0,0,6.836-3.1l.589-.535,4.476,6.08A15.255,15.255,0,0,1,72.928,46.037Z" transform="translate(34.308 6.527)" fill="#fff"/>
        <path id="Path_2" data-name="Path 2" d="M92.592,42.909a15.514,15.514,0,0,1-12.528,5.27c-10.3,0-17.042-7.719-17.042-19.64S69.837,8.677,80.061,8.677a15.918,15.918,0,0,1,12.9,5.71c3.04,3.555,4.367,7.7,4.367,13.855C97.325,34.765,95.851,39.205,92.592,42.909ZM84.5,18.017a5.25,5.25,0,0,0-4.293-2.008A5.344,5.344,0,0,0,75.1,19.861a26.659,26.659,0,0,0-1.068,8.457A26.512,26.512,0,0,0,75.3,37.88a5.527,5.527,0,0,0,5.029,3.114c4.293,0,6.161-3.869,6.161-12.9C86.51,23.047,85.846,19.712,84.5,18.017Z" transform="translate(47.693 6.69)" fill="#fff"/>
        <path id="Path_3" data-name="Path 3" d="M108.234,48.494a8.807,8.807,0,0,1-2.948-3.685,14.242,14.242,0,0,1-10,3.685c-5.344,0-9.931-2.524-11.2-6.161a22.809,22.809,0,0,1-.81-7.554V10.392L93.053,8.55V32.925a15.027,15.027,0,0,0,.81,6.227,4,4,0,0,0,3.482,1.842,7.363,7.363,0,0,0,6.161-3.685V10.631l9.482-2.006V37.6a11.055,11.055,0,0,0,2.3,6.891Z" transform="translate(64.716 6.594)" fill="#fff"/>
        <path id="Path_4" data-name="Path 4" d="M130.759,43.866a13.524,13.524,0,0,1-10.152,4.311,15.937,15.937,0,0,1-7.922-2.008,20.522,20.522,0,0,1,.15,3.114V61.154l-9.562,2.5V19.785a48.269,48.269,0,0,0-.594-9.565l8.807-1.548a16.581,16.581,0,0,1,.663,3.555,12.713,12.713,0,0,1,9.344-3.554,13.6,13.6,0,0,1,7.574,2.3c4.088,2.725,7.062,7.627,7.062,16.379C136.027,35.5,134.682,39.646,130.759,43.866Zm-6.522-23.951a4.588,4.588,0,0,0-4.735-3.187,9.211,9.211,0,0,0-6.6,2.893V38.043a9.359,9.359,0,0,0,5.527,2.21c4.9,0,6.818-3.334,6.818-11.994a27.158,27.158,0,0,0-1.013-8.328Z" transform="translate(81.103 6.69)" fill="#fff"/>
        <path id="Path_5" data-name="Path 5" d="M150.08,49.308a10.63,10.63,0,0,1-5.324-4.588,18.423,18.423,0,0,1-2.3,1.99,12.989,12.989,0,0,1-7.628,2.081c-8.457,0-13.045-4.293-13.045-11.871,0-8.881,6.161-13.045,18.221-13.045a18.423,18.423,0,0,1,2.23.092V22.411c0-4.22-.81-5.638-4.44-5.638-3.187,0-6.891,1.566-11.055,4.311L122.5,13.972a35.411,35.411,0,0,1,6.161-3.114,25.517,25.517,0,0,1,10.368-2.23c6.374,0,10.741,2.377,12.233,6.6a17.632,17.632,0,0,1,.663,6.818l-.221,12.75c0,4.146.221,5.915,3.555,8.439Zm-8.435-18.421c-6.891,0-9.211,1.253-9.211,5.767a4.508,4.508,0,0,0,4.385,4.974A7.222,7.222,0,0,0,142,39.03l.15-8.143Z" transform="translate(97.193 6.662)" fill="#fff"/>
        <path id="Path_6" data-name="Path 6" d="M73.812,35.392a10.465,10.465,0,0,0,5.915-2.634,3.316,3.316,0,0,0,.81-2.7c-.386-2.413-3.464-4.126-6.8-5.288A8.014,8.014,0,0,0,76.575,21.6a3.334,3.334,0,0,0-.15-2.984c-1.052-1.842-3.685-2.69-8.143-2.69h0a7.628,7.628,0,0,0,1.4-4.09,3.372,3.372,0,0,0-1.216-2.616,4.753,4.753,0,0,0-3.133-.966,14.058,14.058,0,0,0-4.072.736A8.236,8.236,0,0,0,61,5.743,3.685,3.685,0,0,0,58.9,3.4a3.961,3.961,0,0,0-1.566-.313,9.6,9.6,0,0,0-5.527,2.5C50.962,2.467,49.36.569,47.277.33h-.406c-1.842,0-3.519,1.309-4.938,3.685A7.719,7.719,0,0,0,36.407.606a3.187,3.187,0,0,0-.589,0,3.869,3.869,0,0,0-2.7,1.842A8.807,8.807,0,0,0,31.949,6.3a13.063,13.063,0,0,0-6.283-2.284,4.182,4.182,0,0,0-1.953.424A3.482,3.482,0,0,0,21.87,6.813a7.363,7.363,0,0,0,.386,3.961,21.575,21.575,0,0,0-4.194-.476A6.062,6.062,0,0,0,13.64,11.66a3.352,3.352,0,0,0-.959,2.984,8.9,8.9,0,0,0,2.837,4.508c-4.22.461-8.788,1.566-9.918,4.207a3.261,3.261,0,0,0,.185,2.911,9.6,9.6,0,0,0,5.049,3.575C6.358,32,2.857,34.618,2.93,37.4c0,1.934,1.6,4.238,8.64,4.238h1.844C9.5,45.616,5.879,50.474,7.777,53.613A4.207,4.207,0,0,0,11.7,55.456a21.906,21.906,0,0,0,8.29-2.377,19.308,19.308,0,0,0-1.751,9.894,4.207,4.207,0,0,0,1.842,2.893,3.925,3.925,0,0,0,2.063.553c3.04,0,7.039-3.132,10.944-7.61.276,4.717,1.2,9.016,3.114,11.2a4.275,4.275,0,0,0,3.058,1.6h.185c3.907,0,6.522-5.41,8.143-10.649,2.654,4.588,5.656,7.739,8.493,7.739a3.887,3.887,0,0,0,1.51-.313C60.983,66.972,61.407,61.3,60.522,55c3.519,2.543,6.612,3.961,8.843,3.961h0a3.887,3.887,0,0,0,3.1-1.309c2.119-2.469.406-6.927-1.842-10.888a21.3,21.3,0,0,0,3.907.442h0c3.685,0,4.809-1.53,5.177-2.819C80.441,41.6,77.622,38.412,73.812,35.392Z" transform="translate(-2.929 -0.33)" fill="none"/>
        <path id="Path_7" data-name="Path 7" d="M61.366,29.472q-1.934-.921-3.685-1.653c1.216-.239,2.469-.535,3.685-.885,8.565-2.322,14.04-6.011,12.731-8.346s-8.565-2.431-16.765-.5c-1.18.276-2.322.589-3.428.921.571-.848,1.142-1.713,1.653-2.616,3.47-6.1,4.132-11.317,1.848-12.295s-6.945,2.431-10.944,8.163c-.589.866-1.124,1.733-1.621,2.6-.258-.959-.571-1.842-.921-2.875C41.617,5.5,37.874,1.043,35.405,1.431s-3.255,5.748-1.363,12.588c.3,1.013.6,2.008.977,2.966a28.489,28.489,0,0,0-3.3-1.584c-7.922-3.8-15.7-5.256-17.668-3.321s2.8,7,11.22,11.2q1.842.9,3.593,1.653c-1.382.239-2.837.535-4.311.885C13.5,28.459,3.809,33.194,3.9,36.437s10.631,3.334,22.624,0c1.584-.424,3.114-.9,4.55-1.382-.921,1.16-1.842,2.431-2.781,3.685C20.93,49.425,16.778,61.2,20.2,63.261S32.788,56.3,39.347,44.875c.829-1.456,1.566-2.855,2.21-4.22.3,1.437.663,2.929,1.086,4.5C46.052,57.366,52.372,67.463,56.13,65.9s2.69-13.266-1.456-24.615c-.535-1.456-1.086-2.819-1.653-4.108,1.234.736,2.543,1.437,3.907,2.137,10.115,5.085,19.363,6.78,20.267,3.685S70.744,33.968,61.366,29.472Z" transform="translate(-2.112 0.578)" fill="#fff"/>
        <g id="Group_1" data-name="Group 1" transform="translate(4.178 1.776)">
          <path id="Path_8" data-name="Path 8" d="M32.019,18.57c-1.068.368-2.23.718-3.428,1.052a51.939,51.939,0,0,1-9.784,1.713C10.591,27.691,4.879,34.637,6.486,37.29s9.617-.2,18.277-5.9A48.125,48.125,0,0,1,30,21.41C30.674,20.394,31.355,19.455,32.019,18.57Z" transform="translate(-4.339 13.26)" fill="#fff"/>
          <path id="Path_9" data-name="Path 9" d="M31,16.878c-.921-.386-1.842-.81-2.8-1.289a35.012,35.012,0,0,1-6.612-4.207c-8.346-.258-15.273,1.052-16.268,3.39s4.329,4.9,12.418,6.245a49.948,49.948,0,0,1,9.985-3.446C28.794,17.3,29.946,17.08,31,16.878Z" transform="translate(-5.197 7.178)" fill="#fff"/>
          <path id="Path_10" data-name="Path 10" d="M28.129,17.36q-.451-1.161-.81-2.377a22.109,22.109,0,0,1-.939-6.161c-4.622-4.083-9.213-6.293-11.222-5.28s-1.052,4.882,2.254,9.581a37.549,37.549,0,0,1,8.163,2.911C26.47,16.457,27.318,16.917,28.129,17.36Z" transform="translate(2.314 0.394)" fill="#fff"/>
          <path id="Path_11" data-name="Path 11" d="M29.85,17.045c.885-.276,1.842-.535,2.745-.751a35.8,35.8,0,0,1,7.363-1.068c4.367-4,6.227-7.7,4.588-9.064s-5.821-.276-10.741,2.451a21.741,21.741,0,0,1-2.555,6.3C30.771,15.571,30.329,16.365,29.85,17.045Z" transform="translate(15.572 2.311)" fill="#fff"/>
          <path id="Path_12" data-name="Path 12" d="M28.242,20.82c-.479.995-1.052,2.045-1.653,3.1A50.832,50.832,0,0,1,20.5,32.361c-.959,10.759.663,20.008,4.311,20.267S31.8,44.52,33.38,34.406a43.537,43.537,0,0,1-4.367-10.262Q28.573,22.423,28.242,20.82Z" transform="translate(7.471 15.156)" fill="#fff"/>
          <path id="Path_13" data-name="Path 13" d="M27.736,17.334c.386-.718.829-1.419,1.289-2.119a25.9,25.9,0,0,1,4.126-4.827c-.129-5.177-1.639-8.866-3.685-9.084S25.211,4.086,23.94,8.818A23.454,23.454,0,0,1,27,14.979C27.274,15.75,27.515,16.542,27.736,17.334Z" transform="translate(10.594 -1.294)" fill="#fff"/>
          <path id="Path_14" data-name="Path 14" d="M54.8,19.224c-.35-2.21-5.694-4.476-12.773-5.694a32.1,32.1,0,0,1-7.683,3.077c-.995.276-1.972.5-2.948.7.959.368,1.842.81,2.911,1.289a44.753,44.753,0,0,1,7.407,4.476C49.661,23.185,55.188,21.6,54.8,19.224Z" transform="translate(16.875 9.015)" fill="#fff"/>
          <path id="Path_15" data-name="Path 15" d="M29.35,19.43c.424.977.829,1.99,1.216,3.077a45.471,45.471,0,0,1,2.284,9.341c7.019,6.945,14.021,10.906,16.067,8.531S47.534,31.442,41.9,24.6a42.375,42.375,0,0,1-9.507-3.555C31.266,20.48,30.271,19.986,29.35,19.43Z" transform="translate(15.151 13.986)" fill="#fff"/>
        </g>
        <path id="Path_16" data-name="Path 16" d="M60.462,31.132a44.753,44.753,0,0,0-7.513-4.476c-.977-.479-1.953-.921-2.911-1.309.977-.185,1.953-.406,2.948-.682a32.1,32.1,0,0,0,7.757-3.077c2.156-1.289,3.225-2.6,2.7-3.575s-2.855-1.548-6.011-1.437a37.088,37.088,0,0,0-7.363,1.068c-.959.221-1.842.479-2.745.751.479-.682.921-1.4,1.352-2.137a21.338,21.338,0,0,0,2.58-6.3c.406-2.008.15-3.464-.829-3.887s-2.855.332-4.791,2.045A25.184,25.184,0,0,0,41.5,12.942a23.493,23.493,0,0,0-1.289,2.137c-.2-.774-.442-1.566-.718-2.34a23.454,23.454,0,0,0-3.219-6.167c-1.352-1.842-2.727-2.781-3.814-2.58s-1.848,1.842-1.848,4.293a22.109,22.109,0,0,0,.939,6.161c.239.81.515,1.6.81,2.377-.81-.442-1.653-.9-2.555-1.327a37.549,37.549,0,0,0-8.217-2.929c-2.819-.6-5.011-.553-5.8.3s.129,2.763,2.469,4.753a35.013,35.013,0,0,0,6.612,4.207c.939.479,1.842.9,2.8,1.289-1.052.2-2.156.424-3.3.7A49.948,49.948,0,0,0,14.4,27.264c-3.3,1.584-5.362,3.279-5.232,4.588s3.022,2.081,7.2,1.842a52.013,52.013,0,0,0,9.767-1.713c1.2-.332,2.358-.682,3.428-1.052-.663.885-1.352,1.842-2.027,2.837a48.123,48.123,0,0,0-5.243,9.967c-1.352,3.685-1.548,6.612-.15,7.363s4.532-1.068,7.7-4.55a50.833,50.833,0,0,0,6.08-8.439c.6-1.052,1.18-2.1,1.653-3.1q.332,1.6.829,3.316a43.537,43.537,0,0,0,4.311,10.188c1.972,3.261,4.057,5.159,5.527,4.588s2.119-3.907,1.566-8.236a45.471,45.471,0,0,0-2.266-9.341c-.386-1.086-.792-2.1-1.216-3.077A33.572,33.572,0,0,0,49.3,34.071a42.376,42.376,0,0,0,9.581,3.555c3.205.7,5.527.535,5.933-.7S63.532,33.508,60.462,31.132Z" transform="translate(2.318 2.733)" fill="#324687"/>
      </g>
    </g>
  </g>
</svg>
