<svg xmlns="http://www.w3.org/2000/svg" xmlns:xlink="http://www.w3.org/1999/xlink" width="300" height="144" viewBox="0 0 300 144">
  <defs>
    <clipPath id="clip-Jamf_Pro">
      <rect width="300" height="144"/>
    </clipPath>
  </defs>
  <g id="Jamf_Pro" data-name="Jamf Pro" clip-path="url(#clip-Jamf_Pro)">
    <rect width="300" height="144" fill="#444"/>
    <g id="Jamf" transform="translate(7.639 3.999)">
      <g id="Background" transform="translate(0 -0.333)">
        <path id="Transparent" d="M214.623-222.688V-86.021H499.346V-222.688Z" transform="translate(-214.623 222.688)" fill="none" fill-rule="evenodd"/>
      </g>
      <g id="Logo" transform="translate(22.777 27.189)">
        <path id="jamf-2" data-name="jamf" d="M200.191,17.269c0-8.13,5.47-11.973,13.156-12.269v6.651h-1.325c-3.4,0-5.173,2.809-5.173,6.208v5.321h6.208v5.912h-6.208V61.909h-6.657V28.947h-5.766V23.033h5.764V17.269ZM177.128,38.555c0-6.651-3.844-9.608-8.425-9.608-5.47,0-9.608,3.548-9.608,9.9V62.205h-6.651V38.555c0-6.651-3.844-9.608-8.425-9.608-5.47,0-9.608,3.548-9.608,9.9V62.205h-6.5V23.625h6.651V28.2h.142c1.774-3.986,6.5-5.47,10.495-5.47a11.733,11.733,0,0,1,11.234,6.651c2.365-4.877,7.391-6.651,12.417-6.651,8.278,0,14.633,5.025,14.633,15.078V62.205h-6.651V38.555ZM97.015,41.806c-8.13,0-10.791,3.986-10.791,7.688s2.661,7.688,10.791,7.688,10.791-3.986,10.791-7.688S105,41.806,97.015,41.806Zm10.495-5.47c0-6.356-6.356-7.83-11.389-7.83a23.028,23.028,0,0,0-10.495,2.661L82.669,25.7a33.247,33.247,0,0,1,13.755-2.96c9.165,0,17.738,3.986,17.738,13.156V62.205h-6.207V58.067a15.446,15.446,0,0,1-12.121,5.025c-9.312,0-16.7-5.173-16.7-13.894,0-7.1,5.912-13.3,16.555-13.3a17.183,17.183,0,0,1,11.826,4.435V36.342ZM66.565,6.478a4.657,4.657,0,1,1-4.583,4.731,4.605,4.605,0,0,1,4.583-4.731Zm-3.1,16.851h6.651l.142,43.605c0,10.052-6.5,13.452-13.746,13.452H54V74.178h2.513c6.5,0,7.1-3.548,7.1-6.947l-.142-43.9Z" transform="translate(25.821 2.392)" fill="#fff"/>
        <path id="Icon" d="M49.667,10.347c-8.13,0-13.008,3.4-15.226,10.791L28.824,38.722c-2.07,5.764-5.47,8.13-11.531,8.13H3.252A3.274,3.274,0,0,0,0,50.111v9.017a3,3,0,0,0,3.1,2.957H60.162a3.274,3.274,0,0,0,3.252-3.252V13.452a3.031,3.031,0,0,0-3.1-3.1ZM3.4,0A3.542,3.542,0,0,0,0,3.4V27.346a3.345,3.345,0,0,0,3.4,3.4H15.518c5.47,0,13.156-1.183,15.226-10.939,0,0,2.07-9.9,3.252-15.668A3.417,3.417,0,0,0,30.6,0Z" transform="translate(0 0)" fill="#778eb1"/>
      </g>
    </g>
  </g>
</svg>
