<svg xmlns="http://www.w3.org/2000/svg" xmlns:xlink="http://www.w3.org/1999/xlink" width="300" height="144" viewBox="0 0 300 144">
  <defs>
    <clipPath id="clip-Notion">
      <rect width="300" height="144"/>
    </clipPath>
  </defs>
  <g id="Notion" clip-path="url(#clip-Notion)">
    <rect width="300" height="144" fill="#fff"/>
    <g id="Notion-2" data-name="Notion" transform="translate(0 0)">
      <g id="Background" transform="translate(0 0)">
        <path id="Transparent" d="M214.623-222.688v144h300v-144Z" transform="translate(-214.623 222.688)" fill="none" fill-rule="evenodd"/>
      </g>
      <g id="Group_52" data-name="Group 52" transform="translate(24 28.271)">
        <path id="Path_1118" data-name="Path 1118" d="M5.262,3.773,53.655.2c5.944-.51,7.472-.166,11.209,2.55l15.45,10.882c2.55,1.872,3.4,2.382,3.4,4.419V77.735c0,3.74-1.359,5.953-6.112,6.291l-56.2,3.4c-3.569.17-5.268-.341-7.137-2.722L2.886,69.914A11.426,11.426,0,0,1,0,62.771V9.72C0,6.662,1.359,4.11,5.262,3.773Z" transform="translate(0 0.001)" fill="#fff"/>
        <path id="Path_1119" data-name="Path 1119" d="M53.655.2,5.262,3.773C1.359,4.11,0,6.662,0,9.72v53.05a11.426,11.426,0,0,0,2.886,7.143L14.26,84.705c1.869,2.382,3.568,2.892,7.137,2.722l56.2-3.4c4.752-.338,6.113-2.55,6.113-6.291V18.051c0-1.933-.763-2.49-3.012-4.14l-.387-.281L64.858,2.748C61.126.033,59.6-.312,53.655.2ZM22.668,17.075c-4.588.309-5.629.379-8.235-1.74L7.8,10.064c-.674-.683-.335-1.533,1.362-1.7l46.527-3.4a9.567,9.567,0,0,1,7.468,2.209l7.979,5.781c.34.172,1.189,1.189.17,1.189L23.263,17.034l-.6.041Zm-5.349,60.15V26.558c0-2.213.679-3.233,2.713-3.405l55.179-3.229c1.872-.169,2.717,1.02,2.717,3.229V73.481c0,2.213-.341,4.084-3.4,4.254L21.732,80.8c-3.055.169-4.41-.849-4.41-3.572ZM69.45,29.276c.337,1.53,0,3.062-1.53,3.235l-2.55.5V70.424a13.236,13.236,0,0,1-5.944,1.869c-2.717,0-3.4-.851-5.432-3.4L37.35,42.708V68.042l5.265,1.193s0,3.061-4.248,3.061l-11.71.68a2.19,2.19,0,0,1,1.187-2.719l3.057-.851V35.91l-4.245-.344A3.181,3.181,0,0,1,29.55,31.65L42.114,30.8l17.31,26.527V33.867l-4.413-.507a2.872,2.872,0,0,1,2.714-3.4l11.72-.683Z" transform="translate(0 0.001)" fill-rule="evenodd"/>
        <path id="Path_1120" data-name="Path 1120" d="M45.271,45.535V22.476h.4L62.3,45.535h5.235V11.649H61.712V34.686h-.4L44.684,11.649h-5.25V45.532h5.85Zm38.716.519c7.682,0,12.354-5.026,12.354-13.363,0-8.315-4.7-13.364-12.354-13.364-7.632,0-12.352,5.073-12.352,13.364C71.633,41.029,76.283,46.054,83.987,46.054Zm0-4.885c-4.06,0-6.384-3.1-6.384-8.478,0-5.355,2.324-8.478,6.384-8.478s6.365,3.122,6.365,8.478C90.352,38.07,88.052,41.169,83.987,41.169Zm17.674-27.616V20H97.6v4.65h4.061V38.671c0,4.979,2.349,6.977,8.25,6.977a16.351,16.351,0,0,0,3.053-.284V40.816a16.964,16.964,0,0,1-1.974.117c-2.44,0-3.522-1.125-3.522-3.661V24.664h5.49v-4.65h-5.494V13.549h-5.8Zm14.785,31.983h5.8V19.843h-5.8ZM119.333,15.6a3.513,3.513,0,1,0-3.475-3.5,3.477,3.477,0,0,0,3.476,3.5Zm18.831,30.457c7.678,0,12.352-5.026,12.352-13.363,0-8.315-4.7-13.364-12.352-13.364S125.81,24.4,125.81,32.691C125.809,41.029,130.458,46.054,138.164,46.054Zm0-4.885c-4.064,0-6.39-3.1-6.39-8.478,0-5.355,2.327-8.478,6.39-8.478,4.038,0,6.364,3.122,6.364,8.478C144.528,38.07,142.226,41.169,138.164,41.169Zm15.819,4.367h5.825V30.577c0-3.782,2.187-6.177,5.658-6.177,3.548,0,5.189,1.974,5.189,5.9v15.24h5.829V28.911c0-6.13-3.124-9.582-8.85-9.582A7.676,7.676,0,0,0,160,23.955h-.4v-4.11h-5.616Z" transform="translate(75.519 16.417)"/>
      </g>
    </g>
  </g>
</svg>
